<svg width="134" height="192" viewBox="0 0 134 192" fill="none" xmlns="http://www.w3.org/2000/svg">
    <path d="M37.5989 128.664C34.4116 126.015 31.4061 120.046 31.4061 120.046C31.4061 120.046 35.7803 121.968 38.6204 123.11C42.4704 124.658 44.5691 125.749 48.58 126.813C51.7658 127.658 56.8796 128.345 56.8796 128.345H72.0105C72.0105 128.345 80.5182 126.969 85.6092 124.962C90.3628 123.087 97.101 118.705 97.101 118.705C97.101 118.705 95.8194 123.255 94.1004 125.664C91.6818 129.053 89.3469 130.277 85.6092 132.112C80.7414 134.502 72.0105 134.921 72.0105 134.921H56.8796L48.58 133.389C48.58 133.389 41.1889 131.649 37.5989 128.664Z" fill="#D2392D"/>
    <path d="M56.8796 134.921L48.58 133.389C48.58 133.389 41.1889 131.649 37.5989 128.664C34.4116 126.015 31.4061 120.046 31.4061 120.046C31.4061 120.046 35.7803 121.968 38.6204 123.11C42.4704 124.658 44.5691 125.749 48.58 126.813C51.7658 127.658 56.8796 128.345 56.8796 128.345M56.8796 134.921H72.0105M56.8796 134.921V128.345M72.0105 134.921C72.0105 134.921 80.7414 134.502 85.6092 132.112C89.3469 130.277 91.6818 129.053 94.1004 125.664C95.8194 123.255 97.101 118.705 97.101 118.705C97.101 118.705 90.3628 123.087 85.6092 124.962C80.5182 126.969 72.0105 128.345 72.0105 128.345M72.0105 134.921V128.345M72.0105 128.345H56.8796" stroke="#542C33" stroke-width="2"/>
    <path d="M113.571 98.0936C115.765 94.3607 118.365 91.8492 122.694 91.7942C125.243 91.7618 126.884 92.2798 128.885 93.8578C131.973 96.2924 132.185 99.379 132.361 103.307C132.609 108.871 126.822 116.449 126.822 116.449L112.377 108.737C112.377 108.737 111.452 101.7 113.571 98.0936Z" fill="#FACACA" stroke="#462A31" stroke-width="3"/>
    <g filter="url(#filter0_i_2_79)">
    <path d="M94.7818 128.83C94.1475 125.25 97.497 119.924 97.497 119.924L104.991 113.516L110.096 106.216L129.94 118.257L124.324 126.332C124.324 126.332 116.33 133.176 110.096 135.13C106.769 136.172 104.614 137.729 101.298 136.65C97.5183 135.42 95.4752 132.744 94.7818 128.83Z" fill="white"/>
    </g>
    <path d="M104.991 113.516L97.497 119.924C97.497 119.924 94.1475 125.25 94.7818 128.83C95.4752 132.744 97.5183 135.42 101.298 136.65C104.614 137.729 106.769 136.172 110.096 135.13C116.33 133.176 124.324 126.332 124.324 126.332M104.991 113.516L110.096 106.216L129.94 118.257L124.324 126.332M104.991 113.516L124.324 126.332" stroke="#462A31" stroke-width="3"/>
    <rect x="0.78302" y="132.5" width="132" height="59" rx="8.5" fill="#A67B4E" stroke="#47292C"/>
    <g filter="url(#filter1_i_2_79)">
    <rect x="3.28302" y="135" width="127" height="54" rx="9" fill="#08683A"/>
    </g>
    <rect x="3.78302" y="135.5" width="126" height="53" rx="8.5" stroke="#47292C"/>
    <g filter="url(#filter2_i_2_79)">
    <path d="M21.7127 78.0451C21.8278 74.0395 23.3996 67.9235 23.3996 67.9235L17.8568 61.4167C17.8568 61.4167 13.1093 55.1282 14.001 50.8131C14.7476 47.1998 16.1001 43.5345 19.7847 43.3424C21.5067 43.2527 22.9877 44.1942 24.0768 45.2227C23.4181 44.1446 22.9528 42.899 23.3996 41.8965C24.3459 39.7734 28.9424 39.7276 28.9424 39.7276C28.9424 39.7276 34.1658 39.7369 36.1721 41.8965C37.7953 43.6437 38.132 47.6802 38.132 47.6802V37.4442C38.132 37.4442 32.7097 36.9553 29.9064 35.1487C25.8897 32.5603 23.3996 29.5646 23.3996 24.7861C23.3996 20.0077 26.1197 17.3381 29.9064 14.4235C33.7995 11.427 41.9559 10.8087 41.9559 10.8087V16.8334C41.9559 16.8334 42.579 13.0082 43.6428 10.8087C47.3447 3.15494 54.6646 1.4138 63.1631 1.16904C69.3269 0.991524 73.4288 1.78531 78.3455 5.50688C81.3816 7.80498 84.6113 12.9776 84.6113 12.9776C84.6113 12.9776 88.6376 13.2871 90.877 14.4235C95.2773 16.6565 97.9575 19.854 98.1067 24.7861C98.2904 30.8571 87.9851 36.5947 87.9851 36.5947L89.1901 39.7276C89.1901 39.7276 94.4733 35.9464 98.1067 36.5947C100.555 37.0314 103.464 37.248 103.65 39.7276C103.769 41.323 101.722 43.3424 101.722 43.3424C101.722 43.3424 106.094 40.9359 108.71 41.8965C111.877 43.0592 112.374 46.0617 113.048 49.3672C114.353 55.7592 105.577 64.3086 105.577 64.3086C105.577 64.3086 108.85 72.5447 108.71 78.0451C108.585 82.9967 105.577 90.3356 105.577 90.3356C105.577 90.3356 110.398 96.8234 110.638 101.662C111.052 110.01 98.1067 119.013 98.1067 119.013C98.1067 119.013 78.4463 127.882 65.091 127.93C51.5539 127.979 31.5933 119.013 31.5933 119.013C31.5933 119.013 19.8694 109.858 19.7847 101.662C19.7368 97.0193 23.3996 90.3356 23.3996 90.3356C23.3996 90.3356 21.5734 82.8878 21.7127 78.0451Z" fill="#FACACA"/>
    <path d="M12.555 129.135C12.4823 122.99 18.4661 119.306 24.6046 119.013C31.5476 118.682 39.1702 123.708 38.132 130.581C37.2021 136.737 30.8137 139.469 24.6046 139.016C18.5353 138.573 12.6271 135.22 12.555 129.135Z" fill="#FACACA"/>
    </g>
    <path d="M23.3996 67.9235C23.3996 67.9235 21.8278 74.0395 21.7127 78.0451C21.5734 82.8878 23.3996 90.3356 23.3996 90.3356C23.3996 90.3356 19.7368 97.0193 19.7847 101.662C19.8694 109.858 31.5933 119.013 31.5933 119.013C31.5933 119.013 51.5539 127.979 65.091 127.93C78.4463 127.882 98.1067 119.013 98.1067 119.013C98.1067 119.013 111.052 110.01 110.638 101.662C110.398 96.8234 105.577 90.3356 105.577 90.3356C105.577 90.3356 108.585 82.9967 108.71 78.0451C108.85 72.5447 105.577 64.3086 105.577 64.3086M23.3996 67.9235L17.8568 61.4167C17.8568 61.4167 13.1093 55.1282 14.001 50.8131C14.7476 47.1998 16.1001 43.5345 19.7847 43.3424C23.4694 43.1504 26.0505 47.6802 26.0505 47.6802C26.0505 47.6802 22.3881 44.1659 23.3996 41.8965C24.3459 39.7734 28.9424 39.7276 28.9424 39.7276C28.9424 39.7276 34.1658 39.7369 36.1721 41.8965C37.7953 43.6437 38.132 47.6802 38.132 47.6802M23.3996 67.9235C23.3996 67.9235 26.5016 70.7571 28.9424 70.8154C32.7398 70.9061 34.5265 67.7321 36.1721 64.3086C38.0476 60.4068 37.311 57.3997 36.1721 53.223C35.5512 50.9458 33.2272 48.1477 33.7622 47.6802C34.2972 47.2128 38.132 49.3672 38.132 49.3672M105.577 64.3086C105.577 64.3086 114.353 55.7592 113.048 49.3672C112.374 46.0617 111.877 43.0592 108.71 41.8965C106.094 40.9359 101.722 43.3424 101.722 43.3424C101.722 43.3424 103.769 41.323 103.65 39.7276C103.464 37.248 100.555 37.0314 98.1067 36.5947C94.4733 35.9464 89.1901 39.7276 89.1901 39.7276M105.577 64.3086C105.577 64.3086 101.202 66.9919 98.1067 66.9595C95.0997 66.928 92.9373 66.4992 90.877 64.3086C88.3856 61.6597 88.9303 58.7781 89.1901 55.151C89.5009 50.8104 96.1352 44.0969 93.2869 44.7884C91.3838 45.2504 89.1901 47.6802 89.1901 47.6802M89.1901 39.7276V47.6802M89.1901 39.7276L87.9851 36.5947M89.1901 47.6802C89.1901 47.6802 82.925 51.9388 78.3455 53.223C72.0929 54.9765 61.7171 53.223 61.7171 53.223L38.132 49.3672M87.9851 36.5947C87.9851 36.5947 98.2904 30.8571 98.1067 24.7861C97.9575 19.854 95.2773 16.6565 90.877 14.4235C88.6376 13.2871 84.6113 12.9776 84.6113 12.9776C84.6113 12.9776 81.3816 7.80498 78.3455 5.50688C73.4288 1.78531 69.3269 0.991524 63.1631 1.16904C54.6646 1.4138 47.3447 3.15494 43.6428 10.8087C42.579 13.0082 41.9559 16.8334 41.9559 16.8334V10.8087C41.9559 10.8087 33.7995 11.427 29.9064 14.4235C26.1197 17.3381 23.3996 20.0077 23.3996 24.7861C23.3996 29.5646 25.8897 32.5603 29.9064 35.1487C32.7097 36.9553 38.132 37.4442 38.132 37.4442M87.9851 36.5947C87.9851 36.5947 83.0236 38.3735 79.7914 38.0406C76.6794 37.7202 72.3207 35.1487 72.3207 35.1487L78.3455 31.2929C78.3455 31.2929 68.5206 37.0054 61.7171 36.5947C57.82 36.3594 52.0775 33.9438 52.0775 33.9438M52.0775 33.9438C52.0775 33.9438 45.0676 38.9343 40.269 38.0406C39.4172 37.882 38.132 37.4442 38.132 37.4442M52.0775 33.9438L46.2937 29.6059M38.132 37.4442V47.6802M38.132 49.3672V47.6802M24.6046 119.013C18.4661 119.306 12.4823 122.99 12.555 129.135C12.6271 135.22 18.5353 138.573 24.6046 139.016C30.8137 139.469 37.2021 136.737 38.132 130.581C39.1702 123.708 31.5476 118.682 24.6046 119.013Z" stroke="#462A31" stroke-width="2"/>
    <g filter="url(#filter3_i_2_79)">
    <path d="M89.1901 39.7276V47.6802C89.1901 47.6802 82.925 51.9388 78.3455 53.223C72.0929 54.9765 61.7171 53.223 61.7171 53.223L38.1319 49.3672V47.6802V37.4442C38.1319 37.4442 32.7097 36.9553 29.9063 35.1487C25.8896 32.5603 23.3996 29.5646 23.3996 24.7861C23.3996 20.0077 26.1197 17.3381 29.9063 14.4235C33.7995 11.427 41.9559 10.8087 41.9559 10.8087V16.8334C41.9559 16.8334 42.579 13.0082 43.6428 10.8087C47.3447 3.15494 54.6646 1.4138 63.1631 1.16904C69.3269 0.991524 73.4288 1.78531 78.3455 5.50688C81.3816 7.80498 84.6112 12.9776 84.6112 12.9776C84.6112 12.9776 88.6376 13.2871 90.877 14.4235C95.2773 16.6565 97.9575 19.854 98.1067 24.7861C98.2904 30.8571 87.9851 36.5947 87.9851 36.5947L89.1901 39.7276Z" fill="white"/>
    </g>
    <path d="M87.9851 36.5947L89.1901 39.7276V47.6802C89.1901 47.6802 82.925 51.9388 78.3455 53.223C72.0929 54.9765 61.7171 53.223 61.7171 53.223L38.1319 49.3672V47.6802V37.4442M87.9851 36.5947C87.9851 36.5947 98.2904 30.8571 98.1067 24.7861C97.9575 19.854 95.2773 16.6565 90.877 14.4235C88.6376 13.2871 84.6112 12.9776 84.6112 12.9776C84.6112 12.9776 81.3816 7.80498 78.3455 5.50688C73.4288 1.78531 69.3269 0.991524 63.1631 1.16904C54.6646 1.4138 47.3447 3.15494 43.6428 10.8087C42.579 13.0082 41.9559 16.8334 41.9559 16.8334V10.8087C41.9559 10.8087 33.7995 11.427 29.9063 14.4235C26.1197 17.3381 23.3996 20.0077 23.3996 24.7861C23.3996 29.5646 25.8896 32.5603 29.9063 35.1487C32.7097 36.9553 38.1319 37.4442 38.1319 37.4442M87.9851 36.5947C87.9851 36.5947 83.0236 38.3735 79.7914 38.0406C76.6794 37.7202 72.3207 35.1487 72.3207 35.1487L78.3455 31.2929C78.3455 31.2929 68.5206 37.0054 61.7171 36.5947C57.8199 36.3594 52.0775 33.9438 52.0775 33.9438M52.0775 33.9438C52.0775 33.9438 45.0676 38.9343 40.2689 38.0406C39.4172 37.882 38.1319 37.4442 38.1319 37.4442M52.0775 33.9438L46.2937 29.6059" stroke="#523D3D" stroke-width="2"/>
    <path d="M58.7166 112.559V104.34H72.4429V112.559C72.0366 114.468 70.4703 115.447 70.4703 115.447C70.4703 115.447 68.879 116.587 67.6547 117.045C65.9268 117.692 64.6523 117.707 62.9303 117.045C61.7292 116.583 60.2488 115.13 60.2488 115.13C60.2488 115.13 59.261 114.517 58.7166 112.559Z" fill="#573A44" stroke="black" stroke-opacity="0.25"/>
    <g filter="url(#filter4_f_2_79)">
    <ellipse cx="65.2765" cy="112.623" rx="6.2313" ry="4.91298" fill="#D93324"/>
    </g>
    <g filter="url(#filter5_i_2_79)">
    <path d="M58.7166 112.559V104.34H72.4429V112.559C72.0366 114.468 70.4703 115.447 70.4703 115.447C70.4703 115.447 68.879 116.587 67.6547 117.045C65.9268 117.692 64.6523 117.707 62.9303 117.045C61.7292 116.583 60.2488 115.13 60.2488 115.13C60.2488 115.13 59.261 114.517 58.7166 112.559Z" stroke="black" stroke-opacity="0.25"/>
    </g>
    <g filter="url(#filter6_i_2_79)">
    <path d="M55.7048 90.2515C58.7075 87.4338 61.1451 85.7432 65.2625 85.7985C69.2649 85.8523 71.52 87.5728 74.4943 90.2515C77.3975 92.8662 80.2436 94.8396 79.8162 98.7231C79.6533 100.204 79.4443 101.145 78.5129 102.307C77.571 103.483 73.3088 104.371 73.3088 104.371H57.8864C57.8864 104.371 53.8032 103.503 52.6637 102.307C51.5776 101.167 51.1294 100.266 50.8173 98.7231C50.0603 94.9794 52.9195 92.8651 55.7048 90.2515Z" fill="#ED637B"/>
    </g>
    <path d="M55.7048 90.2515C58.7075 87.4338 61.1451 85.7432 65.2625 85.7985C69.2649 85.8523 71.52 87.5728 74.4943 90.2515C77.3975 92.8662 80.2436 94.8396 79.8162 98.7231C79.6533 100.204 79.4443 101.145 78.5129 102.307C77.571 103.483 73.3088 104.371 73.3088 104.371H57.8864C57.8864 104.371 53.8032 103.503 52.6637 102.307C51.5776 101.167 51.1294 100.266 50.8173 98.7231C50.0603 94.9794 52.9195 92.8651 55.7048 90.2515Z" stroke="black" stroke-opacity="0.5"/>
    <ellipse cx="43.649" cy="89.8171" rx="6.08217" ry="2.38942" fill="#EF7777"/>
    <ellipse cx="86.9845" cy="89.8171" rx="6.08217" ry="2.38942" fill="#EF7777"/>
    <ellipse cx="60.375" cy="95.7906" rx="1.84637" ry="3.58413" fill="#54383F"/>
    <ellipse cx="69.8241" cy="95.7906" rx="1.84637" ry="3.58413" fill="#54383F"/>
    <g filter="url(#filter7_f_2_79)">
    <path d="M37.6181 35.3897C37.6181 35.3897 40.9464 36.6478 43.1609 36.5947C47.1581 36.4988 52.3185 32.0159 52.3185 32.0159M52.3185 32.0159L48.7037 28.883M52.3185 32.0159C52.3185 32.0159 58.5466 34.1848 62.6811 34.1848C66.8157 34.1848 73.0437 32.0159 73.0437 32.0159M73.0437 32.0159L77.0278 29.7238M73.0437 32.0159C73.0437 32.0159 77.2329 35.6847 80.5252 35.9692C82.8 36.1657 86.2709 34.8866 86.2709 34.8866" stroke="#676767" stroke-width="3"/>
    </g>
    <g filter="url(#filter8_i_2_79)">
    <ellipse cx="51.4706" cy="77.7456" rx="6.33233" ry="6.25666" fill="#4D3944"/>
    </g>
    <path d="M57.3029 77.7456C57.3029 80.9193 54.6974 83.5023 51.4706 83.5023C48.2438 83.5023 45.6382 80.9193 45.6382 77.7456C45.6382 74.572 48.2438 71.989 51.4706 71.989C54.6974 71.989 57.3029 74.572 57.3029 77.7456Z" stroke="#4A2C3B"/>
    <g filter="url(#filter9_i_2_79)">
    <ellipse cx="78.4764" cy="77.7456" rx="6.33233" ry="6.25666" fill="#4D3944"/>
    </g>
    <path d="M84.3087 77.7456C84.3087 80.9193 81.7032 83.5023 78.4764 83.5023C75.2496 83.5023 72.644 80.9193 72.644 77.7456C72.644 74.572 75.2496 71.989 78.4764 71.989C81.7032 71.989 84.3087 74.572 84.3087 77.7456Z" stroke="#4A2C3B"/>
    <path d="M20.6809 169.921H16.3358L21.9796 153.194H27.362L33.0059 169.921H28.6607L24.7321 157.408H24.6014L20.6809 169.921ZM20.101 163.338H29.1834V166.409H20.101V163.338ZM34.8068 169.921V153.194H41.782C43.0343 153.194 44.0825 153.371 44.9265 153.725C45.7759 154.079 46.413 154.574 46.8377 155.211C47.2679 155.848 47.4829 156.586 47.4829 157.425C47.4829 158.062 47.3495 158.631 47.0827 159.132C46.8159 159.627 46.4484 160.038 45.9801 160.365C45.5118 160.692 44.97 160.92 44.3548 161.051V161.214C45.0299 161.247 45.6534 161.43 46.2251 161.762C46.8023 162.094 47.2651 162.557 47.6136 163.15C47.9621 163.738 48.1364 164.435 48.1364 165.241C48.1364 166.14 47.9077 166.943 47.4503 167.651C46.9929 168.353 46.3313 168.908 45.4655 169.317C44.5998 169.72 43.5489 169.921 42.3128 169.921H34.8068ZM38.8498 166.662H41.3491C42.2257 166.662 42.871 166.496 43.2848 166.164C43.7041 165.832 43.9137 165.369 43.9137 164.776C43.9137 164.345 43.813 163.975 43.6115 163.665C43.41 163.349 43.1242 163.107 42.7539 162.938C42.3836 162.764 41.9399 162.676 41.4226 162.676H38.8498V166.662ZM38.8498 160.071H41.0877C41.5288 160.071 41.9208 159.997 42.2638 159.85C42.6069 159.703 42.8737 159.491 43.0643 159.213C43.2603 158.936 43.3583 158.601 43.3583 158.209C43.3583 157.648 43.1596 157.207 42.7621 156.886C42.3646 156.564 41.8282 156.404 41.153 156.404H38.8498V160.071ZM54.1232 153.194V169.921H50.0803V153.194H54.1232ZM56.6613 169.921V153.194H68.3247V156.477H60.7043V159.908H67.7284V163.199H60.7043V166.638H68.3247V169.921H56.6613ZM70.8566 169.921V153.194H77.7664C79.0188 153.194 80.0996 153.42 81.009 153.872C81.9237 154.318 82.6289 154.961 83.1244 155.799C83.6199 156.632 83.8676 157.621 83.8676 158.764C83.8676 159.924 83.6144 160.91 83.108 161.721C82.6016 162.527 81.8829 163.142 80.9518 163.567C80.0207 163.986 78.9181 164.196 77.6439 164.196H73.2742V161.01H76.8925C77.5023 161.01 78.0114 160.931 78.4198 160.773C78.8337 160.61 79.1467 160.365 79.3591 160.038C79.5715 159.706 79.6776 159.281 79.6776 158.764C79.6776 158.247 79.5715 157.819 79.3591 157.482C79.1467 157.139 78.8337 156.883 78.4198 156.714C78.006 156.54 77.4969 156.453 76.8925 156.453H74.8996V169.921H70.8566ZM80.2739 162.276L84.4394 169.921H80.0288L75.945 162.276H80.2739ZM85.5379 156.477V153.194H99.676V156.477H94.604V169.921H90.6182V156.477H85.5379ZM116.675 161.557C116.675 163.398 116.321 164.958 115.613 166.238C114.905 167.517 113.947 168.489 112.738 169.153C111.535 169.818 110.184 170.15 108.687 170.15C107.184 170.15 105.831 169.815 104.628 169.145C103.424 168.475 102.469 167.503 101.761 166.229C101.058 164.95 100.707 163.392 100.707 161.557C100.707 159.717 101.058 158.157 101.761 156.877C102.469 155.598 103.424 154.626 104.628 153.962C105.831 153.297 107.184 152.965 108.687 152.965C110.184 152.965 111.535 153.297 112.738 153.962C113.947 154.626 114.905 155.598 115.613 156.877C116.321 158.157 116.675 159.717 116.675 161.557ZM112.542 161.557C112.542 160.468 112.387 159.548 112.077 158.797C111.772 158.045 111.331 157.476 110.753 157.09C110.182 156.703 109.493 156.51 108.687 156.51C107.887 156.51 107.198 156.703 106.621 157.09C106.043 157.476 105.6 158.045 105.289 158.797C104.984 159.548 104.832 160.468 104.832 161.557C104.832 162.646 104.984 163.567 105.289 164.318C105.6 165.07 106.043 165.639 106.621 166.025C107.198 166.412 107.887 166.605 108.687 166.605C109.493 166.605 110.182 166.412 110.753 166.025C111.331 165.639 111.772 165.07 112.077 164.318C112.387 163.567 112.542 162.646 112.542 161.557Z" fill="white"/>
    <g filter="url(#filter10_f_2_79)">
    <ellipse cx="52.8768" cy="74.5134" rx="2.15252" ry="1.41531" transform="rotate(20.7634 52.8768 74.5134)" fill="white"/>
    </g>
    <g filter="url(#filter11_f_2_79)">
    <ellipse cx="80.4572" cy="74.5134" rx="2.15252" ry="1.41531" transform="rotate(20.7634 80.4572 74.5134)" fill="white"/>
    </g>
    <defs>
    <filter id="filter0_i_2_79" x="93.2023" y="104.204" width="38.8811" height="34.311" filterUnits="userSpaceOnUse" color-interpolation-filters="sRGB">
    <feFlood flood-opacity="0" result="BackgroundImageFix"/>
    <feBlend mode="normal" in="SourceGraphic" in2="BackgroundImageFix" result="shape"/>
    <feColorMatrix in="SourceAlpha" type="matrix" values="0 0 0 0 0 0 0 0 0 0 0 0 0 0 0 0 0 0 127 0" result="hardAlpha"/>
    <feOffset/>
    <feGaussianBlur stdDeviation="4"/>
    <feComposite in2="hardAlpha" operator="arithmetic" k2="-1" k3="1"/>
    <feColorMatrix type="matrix" values="0 0 0 0 0 0 0 0 0 0 0 0 0 0 0 0 0 0 1 0"/>
    <feBlend mode="normal" in2="shape" result="effect1_innerShadow_2_79"/>
    </filter>
    <filter id="filter1_i_2_79" x="3.28302" y="135" width="127" height="54" filterUnits="userSpaceOnUse" color-interpolation-filters="sRGB">
    <feFlood flood-opacity="0" result="BackgroundImageFix"/>
    <feBlend mode="normal" in="SourceGraphic" in2="BackgroundImageFix" result="shape"/>
    <feColorMatrix in="SourceAlpha" type="matrix" values="0 0 0 0 0 0 0 0 0 0 0 0 0 0 0 0 0 0 127 0" result="hardAlpha"/>
    <feOffset/>
    <feGaussianBlur stdDeviation="6.5"/>
    <feComposite in2="hardAlpha" operator="arithmetic" k2="-1" k3="1"/>
    <feColorMatrix type="matrix" values="0 0 0 0 0 0 0 0 0 0 0 0 0 0 0 0 0 0 0.71 0"/>
    <feBlend mode="normal" in2="shape" result="effect1_innerShadow_2_79"/>
    </filter>
    <filter id="filter2_i_2_79" x="11.5544" y="0.146004" width="102.626" height="139.918" filterUnits="userSpaceOnUse" color-interpolation-filters="sRGB">
    <feFlood flood-opacity="0" result="BackgroundImageFix"/>
    <feBlend mode="normal" in="SourceGraphic" in2="BackgroundImageFix" result="shape"/>
    <feColorMatrix in="SourceAlpha" type="matrix" values="0 0 0 0 0 0 0 0 0 0 0 0 0 0 0 0 0 0 127 0" result="hardAlpha"/>
    <feOffset/>
    <feGaussianBlur stdDeviation="5"/>
    <feComposite in2="hardAlpha" operator="arithmetic" k2="-1" k3="1"/>
    <feColorMatrix type="matrix" values="0 0 0 0 0 0 0 0 0 0 0 0 0 0 0 0 0 0 0.7 0"/>
    <feBlend mode="normal" in2="shape" result="effect1_innerShadow_2_79"/>
    </filter>
    <filter id="filter3_i_2_79" x="22.3996" y="0.146004" width="76.7095" height="54.8565" filterUnits="userSpaceOnUse" color-interpolation-filters="sRGB">
    <feFlood flood-opacity="0" result="BackgroundImageFix"/>
    <feBlend mode="normal" in="SourceGraphic" in2="BackgroundImageFix" result="shape"/>
    <feColorMatrix in="SourceAlpha" type="matrix" values="0 0 0 0 0 0 0 0 0 0 0 0 0 0 0 0 0 0 127 0" result="hardAlpha"/>
    <feOffset/>
    <feGaussianBlur stdDeviation="5"/>
    <feComposite in2="hardAlpha" operator="arithmetic" k2="-1" k3="1"/>
    <feColorMatrix type="matrix" values="0 0 0 0 0 0 0 0 0 0 0 0 0 0 0 0 0 0 0.6 0"/>
    <feBlend mode="normal" in2="shape" result="effect1_innerShadow_2_79"/>
    </filter>
    <filter id="filter4_f_2_79" x="58.0452" y="106.71" width="14.4626" height="11.826" filterUnits="userSpaceOnUse" color-interpolation-filters="sRGB">
    <feFlood flood-opacity="0" result="BackgroundImageFix"/>
    <feBlend mode="normal" in="SourceGraphic" in2="BackgroundImageFix" result="shape"/>
    <feGaussianBlur stdDeviation="0.5" result="effect1_foregroundBlur_2_79"/>
    </filter>
    <filter id="filter5_i_2_79" x="58.2166" y="103.84" width="14.7264" height="18.1958" filterUnits="userSpaceOnUse" color-interpolation-filters="sRGB">
    <feFlood flood-opacity="0" result="BackgroundImageFix"/>
    <feBlend mode="normal" in="SourceGraphic" in2="BackgroundImageFix" result="shape"/>
    <feColorMatrix in="SourceAlpha" type="matrix" values="0 0 0 0 0 0 0 0 0 0 0 0 0 0 0 0 0 0 127 0" result="hardAlpha"/>
    <feOffset dy="4"/>
    <feGaussianBlur stdDeviation="2"/>
    <feComposite in2="hardAlpha" operator="arithmetic" k2="-1" k3="1"/>
    <feColorMatrix type="matrix" values="0 0 0 0 0 0 0 0 0 0 0 0 0 0 0 0 0 0 0.25 0"/>
    <feBlend mode="normal" in2="shape" result="effect1_innerShadow_2_79"/>
    </filter>
    <filter id="filter6_i_2_79" x="50.1937" y="85.2972" width="30.1653" height="23.5736" filterUnits="userSpaceOnUse" color-interpolation-filters="sRGB">
    <feFlood flood-opacity="0" result="BackgroundImageFix"/>
    <feBlend mode="normal" in="SourceGraphic" in2="BackgroundImageFix" result="shape"/>
    <feColorMatrix in="SourceAlpha" type="matrix" values="0 0 0 0 0 0 0 0 0 0 0 0 0 0 0 0 0 0 127 0" result="hardAlpha"/>
    <feOffset dy="4"/>
    <feGaussianBlur stdDeviation="2"/>
    <feComposite in2="hardAlpha" operator="arithmetic" k2="-1" k3="1"/>
    <feColorMatrix type="matrix" values="0 0 0 0 0 0 0 0 0 0 0 0 0 0 0 0 0 0 0.25 0"/>
    <feBlend mode="normal" in2="shape" result="effect1_innerShadow_2_79"/>
    </filter>
    <filter id="filter7_f_2_79" x="33.0881" y="23.7494" width="57.701" height="18.3468" filterUnits="userSpaceOnUse" color-interpolation-filters="sRGB">
    <feFlood flood-opacity="0" result="BackgroundImageFix"/>
    <feBlend mode="normal" in="SourceGraphic" in2="BackgroundImageFix" result="shape"/>
    <feGaussianBlur stdDeviation="2" result="effect1_foregroundBlur_2_79"/>
    </filter>
    <filter id="filter8_i_2_79" x="45.1382" y="71.489" width="12.6647" height="12.5133" filterUnits="userSpaceOnUse" color-interpolation-filters="sRGB">
    <feFlood flood-opacity="0" result="BackgroundImageFix"/>
    <feBlend mode="normal" in="SourceGraphic" in2="BackgroundImageFix" result="shape"/>
    <feColorMatrix in="SourceAlpha" type="matrix" values="0 0 0 0 0 0 0 0 0 0 0 0 0 0 0 0 0 0 127 0" result="hardAlpha"/>
    <feOffset/>
    <feGaussianBlur stdDeviation="2"/>
    <feComposite in2="hardAlpha" operator="arithmetic" k2="-1" k3="1"/>
    <feColorMatrix type="matrix" values="0 0 0 0 0 0 0 0 0 0 0 0 0 0 0 0 0 0 0.8 0"/>
    <feBlend mode="normal" in2="shape" result="effect1_innerShadow_2_79"/>
    </filter>
    <filter id="filter9_i_2_79" x="72.144" y="71.489" width="12.6647" height="12.5133" filterUnits="userSpaceOnUse" color-interpolation-filters="sRGB">
    <feFlood flood-opacity="0" result="BackgroundImageFix"/>
    <feBlend mode="normal" in="SourceGraphic" in2="BackgroundImageFix" result="shape"/>
    <feColorMatrix in="SourceAlpha" type="matrix" values="0 0 0 0 0 0 0 0 0 0 0 0 0 0 0 0 0 0 127 0" result="hardAlpha"/>
    <feOffset/>
    <feGaussianBlur stdDeviation="2"/>
    <feComposite in2="hardAlpha" operator="arithmetic" k2="-1" k3="1"/>
    <feColorMatrix type="matrix" values="0 0 0 0 0 0 0 0 0 0 0 0 0 0 0 0 0 0 0.8 0"/>
    <feBlend mode="normal" in2="shape" result="effect1_innerShadow_2_79"/>
    </filter>
    <filter id="filter10_f_2_79" x="49.802" y="71.9855" width="6.14966" height="5.05578" filterUnits="userSpaceOnUse" color-interpolation-filters="sRGB">
    <feFlood flood-opacity="0" result="BackgroundImageFix"/>
    <feBlend mode="normal" in="SourceGraphic" in2="BackgroundImageFix" result="shape"/>
    <feGaussianBlur stdDeviation="0.5" result="effect1_foregroundBlur_2_79"/>
    </filter>
    <filter id="filter11_f_2_79" x="77.3824" y="71.9855" width="6.14966" height="5.05578" filterUnits="userSpaceOnUse" color-interpolation-filters="sRGB">
    <feFlood flood-opacity="0" result="BackgroundImageFix"/>
    <feBlend mode="normal" in="SourceGraphic" in2="BackgroundImageFix" result="shape"/>
    <feGaussianBlur stdDeviation="0.5" result="effect1_foregroundBlur_2_79"/>
    </filter>
    </defs>
    </svg>
    