<svg width="133" height="192" viewBox="0 0 133 192" fill="none" xmlns="http://www.w3.org/2000/svg">
    <path d="M37.3159 128.664C34.1286 126.015 31.123 120.046 31.123 120.046C31.123 120.046 35.4973 121.968 38.3374 123.11C42.1874 124.658 44.2861 125.749 48.2969 126.813C51.4827 127.658 56.5966 128.345 56.5966 128.345H71.7275C71.7275 128.345 80.2351 126.969 85.3262 124.962C90.0798 123.087 96.818 118.705 96.818 118.705C96.818 118.705 95.5364 123.255 93.8174 125.664C91.3988 129.053 89.0639 130.277 85.3262 132.112C80.4584 134.502 71.7275 134.921 71.7275 134.921H56.5966L48.2969 133.389C48.2969 133.389 40.9059 131.649 37.3159 128.664Z" fill="#D2392D"/>
    <path d="M56.5966 134.921L48.2969 133.389C48.2969 133.389 40.9059 131.649 37.3159 128.664C34.1286 126.015 31.123 120.046 31.123 120.046C31.123 120.046 35.4973 121.968 38.3374 123.11C42.1874 124.658 44.2861 125.749 48.2969 126.813C51.4827 127.658 56.5966 128.345 56.5966 128.345M56.5966 134.921H71.7275M56.5966 134.921V128.345M71.7275 134.921C71.7275 134.921 80.4584 134.502 85.3262 132.112C89.0639 130.277 91.3988 129.053 93.8174 125.664C95.5364 123.255 96.818 118.705 96.818 118.705C96.818 118.705 90.0798 123.087 85.3262 124.962C80.2352 126.969 71.7275 128.345 71.7275 128.345M71.7275 134.921V128.345M71.7275 128.345H56.5966" stroke="#542C33" stroke-width="2"/>
    <rect x="0.5" y="132.5" width="132" height="59" rx="8.5" fill="#A67B4E" stroke="#47292C"/>
    <g filter="url(#filter0_i_46_2)">
    <rect x="3" y="135" width="127" height="54" rx="9" fill="#08683A"/>
    </g>
    <rect x="3.5" y="135.5" width="126" height="53" rx="8.5" stroke="#47292C"/>
    <g filter="url(#filter1_i_46_2)">
    <path d="M21.4297 78.0451C21.5449 74.0395 23.1166 67.9235 23.1166 67.9235L17.5738 61.4167C17.5738 61.4167 12.8263 55.1282 13.718 50.8131C14.4646 47.1998 15.8171 43.5345 19.5018 43.3424C21.2237 43.2527 22.7047 44.1942 23.7938 45.2227C23.1351 44.1446 22.6698 42.899 23.1166 41.8965C24.0629 39.7734 28.6594 39.7276 28.6594 39.7276C28.6594 39.7276 33.8828 39.7369 35.8891 41.8965C37.5123 43.6437 37.849 47.6802 37.849 47.6802V37.4442C37.849 37.4442 32.4267 36.9553 29.6234 35.1487C25.6067 32.5603 23.1166 29.5646 23.1166 24.7861C23.1166 20.0077 25.8367 17.3381 29.6234 14.4235C33.5165 11.427 41.6729 10.8087 41.6729 10.8087V16.8334C41.6729 16.8334 42.296 13.0082 43.3598 10.8087C47.0617 3.15494 54.3816 1.41379 62.8801 1.16904C69.0439 0.991524 73.1458 1.78531 78.0625 5.50688C81.0986 7.80498 84.3283 12.9776 84.3283 12.9776C84.3283 12.9776 88.3546 13.2871 90.594 14.4235C94.9943 16.6565 97.6746 19.854 97.8237 24.7861C98.0074 30.8571 87.7021 36.5947 87.7021 36.5947L88.9071 39.7276C88.9071 39.7276 94.1903 35.9464 97.8237 36.5947C100.272 37.0314 103.181 37.248 103.367 39.7276C103.486 41.323 101.439 43.3424 101.439 43.3424C101.439 43.3424 105.811 40.9359 108.427 41.8965C111.594 43.0592 112.091 46.0617 112.765 49.3672C114.07 55.7592 105.294 64.3086 105.294 64.3086C105.294 64.3086 108.567 72.5447 108.427 78.0451C108.302 82.9967 105.294 90.3356 105.294 90.3356C105.294 90.3356 110.115 96.8234 110.355 101.662C110.769 110.01 97.8237 119.013 97.8237 119.013C97.8237 119.013 104.656 117.303 108.427 119.013C112.51 120.865 115.435 123.453 115.657 127.93C115.894 132.706 112.767 135.804 108.427 137.811C104.669 139.549 101.582 139.549 97.8237 137.811C93.4841 135.804 90.3569 132.706 90.594 127.93C90.8163 123.453 97.8237 119.013 97.8237 119.013C97.8237 119.013 78.1633 127.882 64.808 127.93C51.2709 127.979 31.3103 119.013 31.3103 119.013C31.3103 119.013 19.5864 109.858 19.5018 101.662C19.4538 97.0193 23.1166 90.3356 23.1166 90.3356C23.1166 90.3356 21.2904 82.8878 21.4297 78.0451Z" fill="#FACACA"/>
    <path d="M12.2721 129.135C12.1993 122.99 18.1831 119.306 24.3216 119.013C31.2646 118.682 38.8872 123.708 37.849 130.581C36.9191 136.737 30.5307 139.469 24.3216 139.016C18.2523 138.573 12.3441 135.22 12.2721 129.135Z" fill="#FACACA"/>
    </g>
    <path d="M23.1166 67.9235C23.1166 67.9235 21.5449 74.0395 21.4297 78.0451C21.2904 82.8878 23.1166 90.3356 23.1166 90.3356C23.1166 90.3356 19.4538 97.0193 19.5018 101.662C19.5864 109.858 31.3103 119.013 31.3103 119.013C31.3103 119.013 51.2709 127.979 64.808 127.93C78.1633 127.882 97.8237 119.013 97.8237 119.013M23.1166 67.9235L17.5738 61.4167C17.5738 61.4167 12.8263 55.1282 13.718 50.8131C14.4646 47.1998 15.8171 43.5345 19.5018 43.3424C23.1864 43.1504 25.7675 47.6802 25.7675 47.6802C25.7675 47.6802 22.1051 44.1659 23.1166 41.8965C24.0629 39.7734 28.6594 39.7276 28.6594 39.7276C28.6594 39.7276 33.8828 39.7369 35.8891 41.8965C37.5123 43.6437 37.849 47.6802 37.849 47.6802M23.1166 67.9235C23.1166 67.9235 26.2186 70.7571 28.6594 70.8154C32.4568 70.9061 34.2436 67.7321 35.8891 64.3086C37.7646 60.4068 37.028 57.3997 35.8891 53.223C35.2682 50.9458 32.9443 48.1477 33.4792 47.6802C34.0142 47.2128 37.849 49.3672 37.849 49.3672M97.8237 119.013C97.8237 119.013 110.769 110.01 110.355 101.662C110.115 96.8234 105.294 90.3356 105.294 90.3356C105.294 90.3356 108.302 82.9967 108.427 78.0451C108.567 72.5447 105.294 64.3086 105.294 64.3086M97.8237 119.013C97.8237 119.013 104.656 117.303 108.427 119.013C112.51 120.865 115.435 123.453 115.657 127.93C115.894 132.706 112.767 135.804 108.427 137.811C104.669 139.549 101.582 139.549 97.8237 137.811C93.4841 135.804 90.3569 132.706 90.594 127.93C90.8163 123.453 97.8237 119.013 97.8237 119.013ZM105.294 64.3086C105.294 64.3086 114.07 55.7592 112.765 49.3672C112.091 46.0617 111.594 43.0592 108.427 41.8965C105.811 40.9359 101.439 43.3424 101.439 43.3424C101.439 43.3424 103.486 41.323 103.367 39.7276C103.181 37.248 100.272 37.0314 97.8237 36.5947C94.1903 35.9464 88.9071 39.7276 88.9071 39.7276M105.294 64.3086C105.294 64.3086 100.919 66.9919 97.8237 66.9595C94.8167 66.928 92.6543 66.4992 90.594 64.3086C88.1026 61.6597 88.6474 58.7781 88.9071 55.151C89.2179 50.8104 95.8522 44.0969 93.0039 44.7884C91.1009 45.2504 88.9071 47.6802 88.9071 47.6802M88.9071 39.7276V47.6802M88.9071 39.7276L87.7021 36.5947M88.9071 47.6802C88.9071 47.6802 82.642 51.9388 78.0625 53.223C71.8099 54.9765 61.4341 53.223 61.4341 53.223L37.849 49.3672M87.7021 36.5947C87.7021 36.5947 98.0074 30.8571 97.8237 24.7861C97.6746 19.854 94.9943 16.6565 90.594 14.4235C88.3546 13.2871 84.3283 12.9776 84.3283 12.9776C84.3283 12.9776 81.0986 7.80498 78.0625 5.50688C73.1458 1.78531 69.0439 0.991524 62.8801 1.16904C54.3816 1.4138 47.0617 3.15494 43.3598 10.8087C42.296 13.0082 41.6729 16.8334 41.6729 16.8334V10.8087C41.6729 10.8087 33.5165 11.427 29.6234 14.4235C25.8367 17.3381 23.1166 20.0077 23.1166 24.7861C23.1166 29.5646 25.6067 32.5603 29.6234 35.1487C32.4267 36.9553 37.849 37.4442 37.849 37.4442M87.7021 36.5947C87.7021 36.5947 82.7406 38.3735 79.5084 38.0406C76.3965 37.7202 72.0377 35.1487 72.0377 35.1487L78.0625 31.2929C78.0625 31.2929 68.2376 37.0054 61.4341 36.5947C57.537 36.3594 51.7945 33.9438 51.7945 33.9438M51.7945 33.9438C51.7945 33.9438 44.7846 38.9343 39.986 38.0406C39.1342 37.882 37.849 37.4442 37.849 37.4442M51.7945 33.9438L46.0107 29.6059M37.849 37.4442V47.6802M37.849 49.3672V47.6802M24.3216 119.013C18.1831 119.306 12.1993 122.99 12.2721 129.135C12.3441 135.22 18.2523 138.573 24.3216 139.016C30.5307 139.469 36.9191 136.737 37.849 130.581C38.8872 123.708 31.2646 118.682 24.3216 119.013Z" stroke="#462A31" stroke-width="2"/>
    <g filter="url(#filter2_i_46_2)">
    <path d="M88.9071 39.7276V47.6802C88.9071 47.6802 82.642 51.9388 78.0625 53.223C71.8099 54.9765 61.4341 53.223 61.4341 53.223L37.849 49.3672V47.6802V37.4442C37.849 37.4442 32.4267 36.9553 29.6234 35.1487C25.6067 32.5603 23.1166 29.5646 23.1166 24.7861C23.1166 20.0077 25.8367 17.3381 29.6234 14.4235C33.5165 11.427 41.6729 10.8087 41.6729 10.8087V16.8334C41.6729 16.8334 42.296 13.0082 43.3598 10.8087C47.0617 3.15494 54.3816 1.4138 62.8801 1.16904C69.0439 0.991524 73.1458 1.78531 78.0625 5.50688C81.0986 7.80498 84.3282 12.9776 84.3282 12.9776C84.3282 12.9776 88.3546 13.2871 90.594 14.4235C94.9943 16.6565 97.6745 19.854 97.8237 24.7861C98.0074 30.8571 87.7021 36.5947 87.7021 36.5947L88.9071 39.7276Z" fill="white"/>
    </g>
    <path d="M87.7021 36.5947L88.9071 39.7276V47.6802C88.9071 47.6802 82.642 51.9388 78.0625 53.223C71.8099 54.9765 61.4341 53.223 61.4341 53.223L37.849 49.3672V47.6802V37.4442M87.7021 36.5947C87.7021 36.5947 98.0074 30.8571 97.8237 24.7861C97.6745 19.854 94.9943 16.6565 90.594 14.4235C88.3546 13.2871 84.3282 12.9776 84.3282 12.9776C84.3282 12.9776 81.0986 7.80498 78.0625 5.50688C73.1458 1.78531 69.0439 0.991524 62.8801 1.16904C54.3816 1.4138 47.0617 3.15494 43.3598 10.8087C42.296 13.0082 41.6729 16.8334 41.6729 16.8334V10.8087C41.6729 10.8087 33.5165 11.427 29.6234 14.4235C25.8367 17.3381 23.1166 20.0077 23.1166 24.7861C23.1166 29.5646 25.6067 32.5603 29.6234 35.1487C32.4267 36.9553 37.849 37.4442 37.849 37.4442M87.7021 36.5947C87.7021 36.5947 82.7406 38.3735 79.5084 38.0406C76.3964 37.7202 72.0377 35.1487 72.0377 35.1487L78.0625 31.2929C78.0625 31.2929 68.2376 37.0054 61.4341 36.5947C57.537 36.3594 51.7945 33.9438 51.7945 33.9438M51.7945 33.9438C51.7945 33.9438 44.7846 38.9343 39.986 38.0406C39.1342 37.882 37.849 37.4442 37.849 37.4442M51.7945 33.9438L46.0107 29.6059" stroke="#523D3D" stroke-width="2"/>
    <path d="M58.4336 112.559V104.34H72.1599V112.559C71.7536 114.468 70.1872 115.447 70.1872 115.447C70.1872 115.447 68.5959 116.587 67.3717 117.045C65.6437 117.692 64.3693 117.707 62.6472 117.045C61.4462 116.583 59.9658 115.13 59.9658 115.13C59.9658 115.13 58.978 114.517 58.4336 112.559Z" fill="#573A44" stroke="black" stroke-opacity="0.25"/>
    <g filter="url(#filter3_f_46_2)">
    <ellipse cx="64.9934" cy="112.623" rx="6.2313" ry="4.91298" fill="#D93324"/>
    </g>
    <g filter="url(#filter4_i_46_2)">
    <path d="M58.4336 112.559V104.34H72.1599V112.559C71.7536 114.468 70.1872 115.447 70.1872 115.447C70.1872 115.447 68.5959 116.587 67.3717 117.045C65.6437 117.692 64.3693 117.707 62.6472 117.045C61.4462 116.583 59.9658 115.13 59.9658 115.13C59.9658 115.13 58.978 114.517 58.4336 112.559Z" stroke="black" stroke-opacity="0.25"/>
    </g>
    <g filter="url(#filter5_i_46_2)">
    <path d="M55.4217 90.2515C58.4245 87.4338 60.8621 85.7432 64.9794 85.7985C68.9818 85.8523 71.237 87.5728 74.2113 90.2515C77.1145 92.8662 79.9606 94.8396 79.5332 98.7231C79.3702 100.204 79.1612 101.145 78.2299 102.307C77.288 103.483 73.0258 104.371 73.0258 104.371H57.6034C57.6034 104.371 53.5202 103.503 52.3807 102.307C51.2946 101.167 50.8463 100.266 50.5343 98.7231C49.7773 94.9794 52.6365 92.8651 55.4217 90.2515Z" fill="#ED637B"/>
    </g>
    <path d="M55.4217 90.2515C58.4245 87.4338 60.8621 85.7432 64.9794 85.7985C68.9818 85.8523 71.237 87.5728 74.2113 90.2515C77.1145 92.8662 79.9606 94.8396 79.5332 98.7231C79.3702 100.204 79.1612 101.145 78.2299 102.307C77.288 103.483 73.0258 104.371 73.0258 104.371H57.6034C57.6034 104.371 53.5202 103.503 52.3807 102.307C51.2946 101.167 50.8463 100.266 50.5343 98.7231C49.7773 94.9794 52.6365 92.8651 55.4217 90.2515Z" stroke="black" stroke-opacity="0.5"/>
    <g filter="url(#filter6_d_46_2)">
    <path d="M45.0468 76.3581C45.0468 76.3581 45.5129 78.353 46.4927 79.009C48.1256 80.1024 49.3483 77.5036 51.3125 77.5631C53.0974 77.6172 54.0706 79.8414 55.6504 79.009C56.736 78.4371 57.3373 76.3581 57.3373 76.3581C57.3373 76.3581 54.1573 72.3128 51.3125 72.2613C48.3895 72.2084 45.0468 76.3581 45.0468 76.3581Z" fill="#4D3944"/>
    <path d="M45.0468 76.3581C45.0468 76.3581 45.5129 78.353 46.4927 79.009C48.1256 80.1024 49.3483 77.5036 51.3125 77.5631C53.0974 77.6172 54.0706 79.8414 55.6504 79.009C56.736 78.4371 57.3373 76.3581 57.3373 76.3581C57.3373 76.3581 54.1573 72.3128 51.3125 72.2613C48.3895 72.2084 45.0468 76.3581 45.0468 76.3581Z" stroke="#4A2C3B"/>
    </g>
    <g filter="url(#filter7_d_46_2)">
    <path d="M72.4165 76.3581C72.4165 76.3581 72.8826 78.353 73.8625 79.009C75.4954 80.1024 76.7181 77.5036 78.6823 77.5631C80.4671 77.6172 81.4403 79.8414 83.0201 79.009C84.1057 78.4371 84.7071 76.3581 84.7071 76.3581C84.7071 76.3581 81.5271 72.3128 78.6823 72.2613C75.7592 72.2084 72.4165 76.3581 72.4165 76.3581Z" fill="#4D3944"/>
    <path d="M72.4165 76.3581C72.4165 76.3581 72.8826 78.353 73.8625 79.009C75.4954 80.1024 76.7181 77.5036 78.6823 77.5631C80.4671 77.6172 81.4403 79.8414 83.0201 79.009C84.1057 78.4371 84.7071 76.3581 84.7071 76.3581C84.7071 76.3581 81.5271 72.3128 78.6823 72.2613C75.7592 72.2084 72.4165 76.3581 72.4165 76.3581Z" stroke="#4A2C3B"/>
    </g>
    <ellipse cx="43.366" cy="89.8171" rx="6.08217" ry="2.38942" fill="#EF7777"/>
    <ellipse cx="86.7014" cy="89.8171" rx="6.08217" ry="2.38942" fill="#EF7777"/>
    <ellipse cx="60.092" cy="95.7906" rx="1.84637" ry="3.58413" fill="#54383F"/>
    <ellipse cx="69.541" cy="95.7906" rx="1.84637" ry="3.58413" fill="#54383F"/>
    <g filter="url(#filter8_f_46_2)">
    <path d="M37.3351 35.3897C37.3351 35.3897 40.6634 36.6478 42.8779 36.5947C46.8751 36.4988 52.0355 32.0159 52.0355 32.0159M52.0355 32.0159L48.4207 28.883M52.0355 32.0159C52.0355 32.0159 58.2636 34.1848 62.3981 34.1848C66.5327 34.1848 72.7607 32.0159 72.7607 32.0159M72.7607 32.0159L76.7448 29.7238M72.7607 32.0159C72.7607 32.0159 76.9499 35.6847 80.2422 35.9692C82.517 36.1657 85.9879 34.8866 85.9879 34.8866" stroke="#676767" stroke-width="3"/>
    </g>
    <path d="M25.5282 159.254H21.4444C21.3899 158.835 21.2783 158.457 21.1095 158.119C20.9407 157.781 20.7175 157.493 20.4398 157.253C20.1621 157.014 19.8326 156.831 19.4515 156.706C19.0758 156.575 18.6592 156.51 18.2018 156.51C17.3905 156.51 16.6908 156.709 16.1028 157.106C15.5201 157.504 15.0709 158.078 14.7551 158.829C14.4447 159.581 14.2896 160.49 14.2896 161.557C14.2896 162.668 14.4475 163.599 14.7633 164.351C15.0845 165.097 15.5338 165.66 16.1109 166.041C16.6936 166.417 17.3824 166.605 18.1773 166.605C18.6238 166.605 19.0295 166.548 19.3943 166.434C19.7646 166.319 20.0886 166.153 20.3663 165.935C20.6494 165.712 20.8808 165.443 21.0605 165.127C21.2456 164.805 21.3736 164.443 21.4444 164.04L25.5282 164.065C25.4574 164.805 25.2423 165.535 24.8829 166.254C24.529 166.973 24.0417 167.629 23.4209 168.222C22.8002 168.81 22.0433 169.279 21.1503 169.627C20.2628 169.976 19.2446 170.15 18.0957 170.15C16.5819 170.15 15.2261 169.818 14.0282 169.153C12.8357 168.484 11.8937 167.509 11.2022 166.229C10.5107 164.95 10.1649 163.392 10.1649 161.557C10.1649 159.717 10.5161 158.157 11.2185 156.877C11.9209 155.598 12.8711 154.626 14.069 153.962C15.2669 153.297 16.6092 152.965 18.0957 152.965C19.1084 152.965 20.045 153.107 20.9053 153.39C21.7656 153.668 22.5225 154.076 23.1759 154.615C23.8293 155.149 24.3602 155.805 24.7686 156.583C25.177 157.362 25.4302 158.252 25.5282 159.254ZM27.8417 169.921V153.194H39.505V156.477H31.8846V159.908H38.9088V163.199H31.8846V166.638H39.505V169.921H27.8417ZM42.037 169.921V153.194H48.9468C50.1991 153.194 51.28 153.42 52.1893 153.872C53.1041 154.318 53.8092 154.961 54.3047 155.799C54.8002 156.632 55.048 157.621 55.048 158.764C55.048 159.924 54.7948 160.91 54.2884 161.721C53.782 162.527 53.0633 163.142 52.1321 163.567C51.201 163.986 50.0984 164.196 48.8243 164.196H44.4546V161.01H48.0728C48.6827 161.01 49.1918 160.931 49.6002 160.773C50.014 160.61 50.3271 160.365 50.5395 160.038C50.7518 159.706 50.858 159.281 50.858 158.764C50.858 158.247 50.7518 157.819 50.5395 157.482C50.3271 157.139 50.014 156.883 49.6002 156.714C49.1864 156.54 48.6772 156.453 48.0728 156.453H46.0799V169.921H42.037ZM51.4542 162.276L55.6197 169.921H51.2092L47.1254 162.276H51.4542ZM57.2655 169.921V153.194H64.1753C65.4277 153.194 66.5085 153.42 67.4178 153.872C68.3326 154.318 69.0377 154.961 69.5332 155.799C70.0287 156.632 70.2765 157.621 70.2765 158.764C70.2765 159.924 70.0233 160.91 69.5169 161.721C69.0105 162.527 68.2918 163.142 67.3607 163.567C66.4296 163.986 65.3269 164.196 64.0528 164.196H59.6831V161.01H63.3014C63.9112 161.01 64.4203 160.931 64.8287 160.773C65.2425 160.61 65.5556 160.365 65.768 160.038C65.9803 159.706 66.0865 159.281 66.0865 158.764C66.0865 158.247 65.9803 157.819 65.768 157.482C65.5556 157.139 65.2425 156.883 64.8287 156.714C64.4149 156.54 63.9058 156.453 63.3014 156.453H61.3085V169.921H57.2655ZM66.6828 162.276L70.8482 169.921H66.4377L62.3539 162.276H66.6828ZM76.1123 169.921H71.7671L77.4109 153.194H82.7934L88.4372 169.921H84.092L80.1634 157.408H80.0327L76.1123 169.921ZM75.5324 163.338H84.6147V166.409H75.5324V163.338ZM96.421 169.921H90.2381V153.194H96.4129C98.1172 153.194 99.5846 153.529 100.815 154.198C102.051 154.863 103.004 155.821 103.674 157.073C104.344 158.32 104.678 159.812 104.678 161.549C104.678 163.292 104.344 164.789 103.674 166.041C103.01 167.294 102.059 168.255 100.823 168.925C99.5873 169.589 98.1199 169.921 96.421 169.921ZM94.2811 166.474H96.2658C97.2024 166.474 97.9947 166.316 98.6426 166.001C99.296 165.679 99.7888 165.159 100.121 164.441C100.459 163.716 100.627 162.753 100.627 161.549C100.627 160.346 100.459 159.388 100.121 158.674C99.7834 157.956 99.2851 157.438 98.6263 157.122C97.9729 156.801 97.167 156.641 96.2087 156.641H94.2811V166.474ZM122.827 161.557C122.827 163.398 122.473 164.958 121.765 166.238C121.057 167.517 120.099 168.489 118.89 169.153C117.687 169.818 116.336 170.15 114.839 170.15C113.336 170.15 111.983 169.815 110.78 169.145C109.576 168.475 108.621 167.503 107.913 166.229C107.21 164.95 106.859 163.392 106.859 161.557C106.859 159.717 107.21 158.157 107.913 156.877C108.621 155.598 109.576 154.626 110.78 153.962C111.983 153.297 113.336 152.965 114.839 152.965C116.336 152.965 117.687 153.297 118.89 153.962C120.099 154.626 121.057 155.598 121.765 156.877C122.473 158.157 122.827 159.717 122.827 161.557ZM118.694 161.557C118.694 160.468 118.539 159.548 118.229 158.797C117.924 158.045 117.483 157.476 116.905 157.09C116.334 156.703 115.645 156.51 114.839 156.51C114.039 156.51 113.35 156.703 112.773 157.09C112.195 157.476 111.752 158.045 111.441 158.797C111.136 159.548 110.984 160.468 110.984 161.557C110.984 162.646 111.136 163.567 111.441 164.318C111.752 165.07 112.195 165.639 112.773 166.025C113.35 166.412 114.039 166.605 114.839 166.605C115.645 166.605 116.334 166.412 116.905 166.025C117.483 165.639 117.924 165.07 118.229 164.318C118.539 163.567 118.694 162.646 118.694 161.557Z" fill="white"/>
    <path d="M103.875 43.6718V41.3685L112.002 30.2279H103.883V26.9445H117.115V29.2478L108.988 40.3884H117.107V43.6718H103.875ZM94.0823 63.6718V61.393L99.8976 54.3117V54.23H94.2864V51.1263H104.659V53.6256L99.2687 60.4864V60.5681H104.855V63.6718H94.0823Z" fill="black"/>
    <defs>
    <filter id="filter0_i_46_2" x="3" y="135" width="127" height="54" filterUnits="userSpaceOnUse" color-interpolation-filters="sRGB">
    <feFlood flood-opacity="0" result="BackgroundImageFix"/>
    <feBlend mode="normal" in="SourceGraphic" in2="BackgroundImageFix" result="shape"/>
    <feColorMatrix in="SourceAlpha" type="matrix" values="0 0 0 0 0 0 0 0 0 0 0 0 0 0 0 0 0 0 127 0" result="hardAlpha"/>
    <feOffset/>
    <feGaussianBlur stdDeviation="6.5"/>
    <feComposite in2="hardAlpha" operator="arithmetic" k2="-1" k3="1"/>
    <feColorMatrix type="matrix" values="0 0 0 0 0 0 0 0 0 0 0 0 0 0 0 0 0 0 0.71 0"/>
    <feBlend mode="normal" in2="shape" result="effect1_innerShadow_46_2"/>
    </filter>
    <filter id="filter1_i_46_2" x="11.2714" y="0.146004" width="105.398" height="139.968" filterUnits="userSpaceOnUse" color-interpolation-filters="sRGB">
    <feFlood flood-opacity="0" result="BackgroundImageFix"/>
    <feBlend mode="normal" in="SourceGraphic" in2="BackgroundImageFix" result="shape"/>
    <feColorMatrix in="SourceAlpha" type="matrix" values="0 0 0 0 0 0 0 0 0 0 0 0 0 0 0 0 0 0 127 0" result="hardAlpha"/>
    <feOffset/>
    <feGaussianBlur stdDeviation="5"/>
    <feComposite in2="hardAlpha" operator="arithmetic" k2="-1" k3="1"/>
    <feColorMatrix type="matrix" values="0 0 0 0 0 0 0 0 0 0 0 0 0 0 0 0 0 0 0.7 0"/>
    <feBlend mode="normal" in2="shape" result="effect1_innerShadow_46_2"/>
    </filter>
    <filter id="filter2_i_46_2" x="22.1166" y="0.146004" width="76.7096" height="54.8565" filterUnits="userSpaceOnUse" color-interpolation-filters="sRGB">
    <feFlood flood-opacity="0" result="BackgroundImageFix"/>
    <feBlend mode="normal" in="SourceGraphic" in2="BackgroundImageFix" result="shape"/>
    <feColorMatrix in="SourceAlpha" type="matrix" values="0 0 0 0 0 0 0 0 0 0 0 0 0 0 0 0 0 0 127 0" result="hardAlpha"/>
    <feOffset/>
    <feGaussianBlur stdDeviation="5"/>
    <feComposite in2="hardAlpha" operator="arithmetic" k2="-1" k3="1"/>
    <feColorMatrix type="matrix" values="0 0 0 0 0 0 0 0 0 0 0 0 0 0 0 0 0 0 0.6 0"/>
    <feBlend mode="normal" in2="shape" result="effect1_innerShadow_46_2"/>
    </filter>
    <filter id="filter3_f_46_2" x="57.7621" y="106.71" width="14.4626" height="11.826" filterUnits="userSpaceOnUse" color-interpolation-filters="sRGB">
    <feFlood flood-opacity="0" result="BackgroundImageFix"/>
    <feBlend mode="normal" in="SourceGraphic" in2="BackgroundImageFix" result="shape"/>
    <feGaussianBlur stdDeviation="0.5" result="effect1_foregroundBlur_46_2"/>
    </filter>
    <filter id="filter4_i_46_2" x="57.9335" y="103.84" width="14.7264" height="18.1958" filterUnits="userSpaceOnUse" color-interpolation-filters="sRGB">
    <feFlood flood-opacity="0" result="BackgroundImageFix"/>
    <feBlend mode="normal" in="SourceGraphic" in2="BackgroundImageFix" result="shape"/>
    <feColorMatrix in="SourceAlpha" type="matrix" values="0 0 0 0 0 0 0 0 0 0 0 0 0 0 0 0 0 0 127 0" result="hardAlpha"/>
    <feOffset dy="4"/>
    <feGaussianBlur stdDeviation="2"/>
    <feComposite in2="hardAlpha" operator="arithmetic" k2="-1" k3="1"/>
    <feColorMatrix type="matrix" values="0 0 0 0 0 0 0 0 0 0 0 0 0 0 0 0 0 0 0.25 0"/>
    <feBlend mode="normal" in2="shape" result="effect1_innerShadow_46_2"/>
    </filter>
    <filter id="filter5_i_46_2" x="49.9107" y="85.2972" width="30.1653" height="23.5736" filterUnits="userSpaceOnUse" color-interpolation-filters="sRGB">
    <feFlood flood-opacity="0" result="BackgroundImageFix"/>
    <feBlend mode="normal" in="SourceGraphic" in2="BackgroundImageFix" result="shape"/>
    <feColorMatrix in="SourceAlpha" type="matrix" values="0 0 0 0 0 0 0 0 0 0 0 0 0 0 0 0 0 0 127 0" result="hardAlpha"/>
    <feOffset dy="4"/>
    <feGaussianBlur stdDeviation="2"/>
    <feComposite in2="hardAlpha" operator="arithmetic" k2="-1" k3="1"/>
    <feColorMatrix type="matrix" values="0 0 0 0 0 0 0 0 0 0 0 0 0 0 0 0 0 0 0.25 0"/>
    <feBlend mode="normal" in2="shape" result="effect1_innerShadow_46_2"/>
    </filter>
    <filter id="filter6_d_46_2" x="40.5044" y="71.7608" width="21.3845" height="16.017" filterUnits="userSpaceOnUse" color-interpolation-filters="sRGB">
    <feFlood flood-opacity="0" result="BackgroundImageFix"/>
    <feColorMatrix in="SourceAlpha" type="matrix" values="0 0 0 0 0 0 0 0 0 0 0 0 0 0 0 0 0 0 127 0" result="hardAlpha"/>
    <feOffset dy="4"/>
    <feGaussianBlur stdDeviation="2"/>
    <feComposite in2="hardAlpha" operator="out"/>
    <feColorMatrix type="matrix" values="0 0 0 0 0 0 0 0 0 0 0 0 0 0 0 0 0 0 0.25 0"/>
    <feBlend mode="normal" in2="BackgroundImageFix" result="effect1_dropShadow_46_2"/>
    <feBlend mode="normal" in="SourceGraphic" in2="effect1_dropShadow_46_2" result="shape"/>
    </filter>
    <filter id="filter7_d_46_2" x="67.8741" y="71.7608" width="21.3845" height="16.017" filterUnits="userSpaceOnUse" color-interpolation-filters="sRGB">
    <feFlood flood-opacity="0" result="BackgroundImageFix"/>
    <feColorMatrix in="SourceAlpha" type="matrix" values="0 0 0 0 0 0 0 0 0 0 0 0 0 0 0 0 0 0 127 0" result="hardAlpha"/>
    <feOffset dy="4"/>
    <feGaussianBlur stdDeviation="2"/>
    <feComposite in2="hardAlpha" operator="out"/>
    <feColorMatrix type="matrix" values="0 0 0 0 0 0 0 0 0 0 0 0 0 0 0 0 0 0 0.25 0"/>
    <feBlend mode="normal" in2="BackgroundImageFix" result="effect1_dropShadow_46_2"/>
    <feBlend mode="normal" in="SourceGraphic" in2="effect1_dropShadow_46_2" result="shape"/>
    </filter>
    <filter id="filter8_f_46_2" x="32.8051" y="23.7494" width="57.7011" height="18.3468" filterUnits="userSpaceOnUse" color-interpolation-filters="sRGB">
    <feFlood flood-opacity="0" result="BackgroundImageFix"/>
    <feBlend mode="normal" in="SourceGraphic" in2="BackgroundImageFix" result="shape"/>
    <feGaussianBlur stdDeviation="2" result="effect1_foregroundBlur_46_2"/>
    </filter>
    </defs>
    </svg>
    